# xmcd
#
# Track frame offsets:
# 150
# 17382
# 39080
# 57972
# 78860
# 97747
# 109865
# 128182
# 146150
# 163885
# 183517
# 199272
#
# Disc length: 2908 seconds
#
#
# Revision: 0
# Processed by: cddbd v1.5.2PL0 Copyright (c) Steve Scherf et al.
# Submitted via: Nero 7, 11, 10, 0 
#
DISCID=970b5a0c
DTITLE=Country Pete McGill - Baby I'm Gone
DYEAR=1997
DGENRE=Blues
TTITLE0=I'm Gone
TTITLE1=It Hurts Me Too
TTITLE2=Find Some Boogie
TTITLE3=Hard To Love
TTITLE4=Go On Little Girl
TTITLE5=Crazy Train
TTITLE6=Peach Tree Blues
TTITLE7=Lonesome Blues
TTITLE8=Party Tonight
TTITLE9=Goin' To Mississippi
TTITLE10=About To Lose My Mind
TTITLE11=All I Want You To Do
EXTD=
EXTT0=I'm Gone
EXTT1=It Hurts Me Too
EXTT2=Find Some Boogie
EXTT3=Hard To Love
EXTT4=Go On Little Girl
EXTT5=Crazy Train
EXTT6=Peach Tree Blues
EXTT7=Lonesome Blues
EXTT8=Party Tonight
EXTT9=Goin' To Mississippi
EXTT10=About To Lose My Mind
EXTT11=All I Want You To Do
PLAYORDER=
